# xmcd CD database file
#
# Track frame offsets:
#	150
#	21236
#	33319
#	54210
#
# Disc length: 1000 seconds
#
# Revision: 0
# Processed by: cddbd v1.5.2PL0 Copyright (c) Steve Scherf et al.
# Submitted via: CDex 1.70beta2
#
DISCID=2603e604
DTITLE=Spontania feat. AZU - 同じ空見つめてるあなたに
DYEAR=2009
DGENRE=Blues
TTITLE0=同じ空みつめてるあなたに
TTITLE1=One Nation
TTITLE2=感謝’09（Spontania☆Hi-Timez）
TTITLE3=同じ空みつめてるあなたに（inst.）
EXTD=YEAR: 2009
EXTT0=
EXTT1=
EXTT2=
EXTT3=
PLAYORDER=
